<svg width="16" height="16" viewBox="0 0 16 16" fill="none" xmlns="http://www.w3.org/2000/svg">
<circle cx="8" cy="8" r="7" stroke="#313131" stroke-width="2"/>
<path d="M9.54864 9.91445L9.09568 8.61328C9.45553 8.49446 9.72372 8.3931 9.90025 8.30969C10.0739 8.22288 10.2455 8.08951 10.4158 7.90959C10.5957 7.71996 10.6854 7.49688 10.6854 7.23984C10.6854 6.97941 10.5923 6.76215 10.4061 6.58707C10.2198 6.412 9.99482 6.32422 9.73148 6.32422C9.48414 6.32422 9.25669 6.412 9.04961 6.58707C8.84253 6.76215 8.73874 6.97165 8.73874 7.21608C8.73874 7.42171 8.79888 7.61278 8.91964 7.78931C9.03991 7.96584 9.19655 8.0929 9.38957 8.17002V8.18941C8.86581 8.45275 8.21886 8.68554 7.44775 8.88826L7.843 10.4014C7.89102 10.5973 7.94097 10.7588 7.99237 10.8858C8.04378 11.0129 8.11362 11.1346 8.20188 11.252C8.29015 11.3694 8.40169 11.4567 8.53651 11.5149C8.67133 11.5726 8.83525 11.6031 9.02779 11.6065C9.32313 11.6065 9.64224 11.4862 9.98415 11.2452C10.3261 11.0042 10.6112 10.7394 10.8396 10.4503V10.412C10.6471 10.5017 10.472 10.5469 10.3144 10.5469C9.95165 10.5454 9.69607 10.3354 9.54864 9.91445Z" fill="#313131"/>
<path d="M8.17514 4.36841C7.9021 4.45812 7.48939 4.54833 6.93701 4.63805C6.34583 4.73456 5.88172 4.79372 5.54466 4.81652V4.85483C5.75999 4.94503 5.92343 5.04591 6.03594 5.15842C6.14845 5.27093 6.20471 5.42661 6.20471 5.62593C6.20471 5.80586 6.18531 5.99548 6.147 6.19432L5.14941 11.4752H6.91276L8.21879 4.36792H8.17514V4.36841Z" fill="#313131"/>
</svg>
