<svg width="24" height="24" viewBox="0 0 24 24" fill="none" xmlns="http://www.w3.org/2000/svg">
<g clip-path="url(#clip0_943_2250)">
<path d="M12 24C18.6274 24 24 18.6274 24 12C24 5.37258 18.6274 0 12 0C5.37258 0 0 5.37258 0 12C0 18.6274 5.37258 24 12 24Z" fill="black"/>
<path d="M7.75564 15.0559C7.79758 15.0099 7.84867 14.9732 7.90564 14.9482C7.96241 14.9233 8.02367 14.9104 8.08564 14.9101L18.2439 14.9185C18.2872 14.9185 18.3296 14.9311 18.3658 14.9547C18.4021 14.9784 18.4307 15.0121 18.4481 15.0517C18.4656 15.0913 18.4711 15.1351 18.4641 15.1779C18.4571 15.2206 18.4378 15.2603 18.4086 15.2923L16.2453 17.6743C16.2035 17.7202 16.1526 17.7569 16.0957 17.7821C16.0389 17.8072 15.9775 17.8201 15.9153 17.8201L5.75735 17.8117C5.71411 17.8115 5.67185 17.7989 5.63567 17.7752C5.5995 17.7515 5.57096 17.7179 5.55353 17.6783C5.5361 17.6387 5.53052 17.595 5.53746 17.5523C5.5444 17.5096 5.56357 17.4699 5.59265 17.4379L7.75564 15.0559ZM18.4077 13.0732C18.4369 13.1051 18.4562 13.1449 18.4632 13.1876C18.4702 13.2303 18.4647 13.2742 18.4472 13.3138C18.4298 13.3534 18.4012 13.3871 18.3649 13.4107C18.3287 13.4344 18.2863 13.447 18.243 13.447L8.08504 13.4554C8.02291 13.4554 7.96146 13.4425 7.90463 13.4173C7.8478 13.3922 7.79685 13.3555 7.75504 13.3096L5.59235 10.9264C5.56326 10.8943 5.54409 10.8545 5.53715 10.8118C5.53012 10.7691 5.53565 10.7253 5.55306 10.6857C5.57048 10.6462 5.59904 10.6125 5.63525 10.5889C5.6715 10.5652 5.71378 10.5525 5.75705 10.5523L15.9153 10.5442C15.9775 10.544 16.0389 10.557 16.0958 10.5821C16.1526 10.6072 16.2036 10.6439 16.2453 10.69L18.4077 13.0732ZM7.75564 6.32647C7.79739 6.28044 7.84833 6.24368 7.90518 6.21856C7.96202 6.19345 8.0235 6.18054 8.08564 6.18066L18.2439 6.18906C18.2872 6.18911 18.3295 6.20173 18.3657 6.22538C18.4019 6.24902 18.4305 6.28268 18.4479 6.32227C18.4653 6.36177 18.4709 6.40549 18.4639 6.44811C18.457 6.49072 18.4377 6.53038 18.4086 6.56227L16.2453 8.94427C16.2035 8.99023 16.1526 9.02693 16.0957 9.05204C16.0389 9.07715 15.9775 9.0901 15.9153 9.09007L5.75735 9.08167C5.71404 9.08167 5.67168 9.06904 5.63544 9.04533C5.59921 9.02162 5.57068 8.98785 5.55335 8.94817C5.53606 8.90863 5.53058 8.86494 5.53755 8.82236C5.54452 8.77978 5.56366 8.74013 5.59265 8.70817L7.75564 6.32647Z" fill="url(#paint0_linear_943_2250)"/>
</g>
<defs>
<linearGradient id="paint0_linear_943_2250" x1="5.92684" y1="18.0736" x2="18.0733" y2="5.92721" gradientUnits="userSpaceOnUse">
<stop stop-color="#9945FF"/>
<stop offset="0.2" stop-color="#7962E7"/>
<stop offset="1" stop-color="#00D18C"/>
</linearGradient>
<clipPath id="clip0_943_2250">
<rect width="24" height="24" fill="white"/>
</clipPath>
</defs>
</svg>
