<?xml version="1.0" standalone="no"?>
<!DOCTYPE svg PUBLIC "-//W3C//DTD SVG 20010904//EN"
 "http://www.w3.org/TR/2001/REC-SVG-20010904/DTD/svg10.dtd">
<svg version="1.0" xmlns="http://www.w3.org/2000/svg"
 width="700.000000pt" height="700.000000pt" viewBox="0 0 700.000000 700.000000"
 preserveAspectRatio="xMidYMid meet">
<metadata>
Created by potrace 1.14, written by Peter Selinger 2001-2017
</metadata>
<g transform="translate(0.000000,700.000000) scale(0.100000,-0.100000)"
fill="#000000" stroke="none">
<path d="M3278 6996 c-1 -2 -39 -6 -83 -10 -396 -30 -841 -153 -1210 -332
-180 -87 -448 -247 -555 -331 -8 -6 -51 -40 -95 -74 -425 -331 -812 -824
-1020 -1299 -25 -58 -52 -118 -59 -135 -51 -115 -148 -423 -171 -546 -3 -13
-11 -58 -20 -99 -22 -115 -30 -160 -41 -255 -26 -230 -26 -667 1 -826 2 -13 6
-46 9 -74 9 -78 22 -152 51 -285 21 -96 91 -339 114 -395 5 -11 30 -75 55
-142 54 -140 181 -394 249 -501 26 -40 47 -76 47 -81 0 -5 3 -11 8 -13 4 -2
33 -41 64 -88 259 -389 673 -772 1113 -1032 373 -221 845 -385 1274 -444 25
-3 57 -8 71 -10 163 -25 682 -25 842 1 13 2 46 7 73 10 71 10 87 13 115 18 14
3 43 8 65 12 324 58 742 213 1039 384 49 28 91 51 93 51 10 0 268 180 353 247
151 118 324 281 450 422 36 41 70 79 76 85 6 6 48 61 94 121 150 197 277 405
383 628 26 53 47 99 47 102 0 2 11 28 24 57 57 127 151 421 182 573 17 81 54
301 59 350 4 33 9 71 11 85 9 46 11 524 4 605 -15 153 -21 210 -25 225 -2 8
-7 35 -10 60 -17 129 -80 384 -136 552 -321 955 -1044 1732 -1974 2120 -236
99 -574 195 -785 223 -19 3 -46 7 -60 10 -13 2 -52 7 -86 11 -33 3 -74 8 -90
10 -32 5 -540 14 -546 10z m437 -880 c79 -8 209 -24 246 -31 13 -3 47 -9 74
-15 28 -6 59 -12 70 -14 73 -14 277 -81 396 -129 415 -170 816 -477 1079 -826
14 -18 34 -45 46 -59 56 -73 156 -239 221 -367 115 -227 218 -547 247 -775 3
-25 8 -54 10 -65 10 -50 19 -221 19 -345 0 -191 -12 -313 -49 -500 -31 -153
-25 -131 -68 -272 -97 -319 -290 -667 -511 -924 -229 -266 -498 -477 -810
-634 -208 -106 -483 -202 -665 -234 -19 -3 -46 -8 -59 -11 -36 -7 -167 -24
-241 -31 -136 -13 -423 -7 -545 11 -16 3 -48 7 -70 10 -139 19 -431 95 -518
134 -23 10 -53 22 -67 26 -42 13 -266 121 -333 161 -454 273 -801 641 -1029
1089 -122 240 -224 559 -253 790 -3 28 -8 57 -10 65 -23 89 -23 545 1 663 2
12 7 42 10 67 3 25 15 86 25 135 11 50 22 101 25 115 11 56 70 232 109 330
177 440 479 834 859 1119 279 209 584 356 918 442 46 11 92 23 103 25 57 13
116 23 164 29 30 4 63 8 74 11 11 2 61 6 111 10 50 3 92 7 93 8 5 5 262 -1
328 -8z"/>
<path d="M3505 5069 c-49 -15 -242 -59 -330 -75 -73 -12 -163 -27 -245 -39
-52 -8 -108 -16 -125 -19 -16 -3 -50 -7 -75 -11 -25 -3 -61 -7 -80 -10 -82
-10 -167 -18 -192 -18 -38 1 -35 -22 5 -38 50 -20 139 -78 175 -115 55 -57 75
-115 74 -219 -1 -85 -5 -138 -17 -195 -2 -13 -7 -40 -10 -60 -6 -38 -9 -55
-25 -135 -5 -27 -12 -61 -14 -75 -21 -109 -71 -374 -97 -510 -17 -91 -33 -176
-35 -190 -3 -14 -11 -56 -19 -95 -7 -38 -16 -86 -19 -105 -3 -19 -8 -46 -11
-60 -10 -54 -15 -76 -19 -100 -3 -14 -14 -74 -26 -135 -12 -60 -25 -132 -30
-160 -5 -27 -18 -99 -30 -160 -12 -60 -24 -121 -26 -135 -2 -14 -6 -34 -9 -46
-3 -12 -7 -38 -11 -59 -3 -21 -18 -101 -33 -179 l-27 -141 375 -3 c207 -1 381
0 387 2 7 3 15 24 19 48 3 24 13 77 20 118 8 41 17 91 20 110 3 19 8 42 10 50
2 8 6 31 9 50 3 19 7 44 10 55 6 29 37 196 42 225 3 14 9 48 14 75 6 28 12 64
14 82 3 18 7 40 10 50 3 10 7 34 10 53 7 42 10 58 41 225 13 72 27 144 30 160
3 17 7 41 10 55 2 14 13 75 24 135 30 164 31 166 41 220 5 28 11 61 14 75 4
26 73 400 80 435 2 11 7 40 11 65 4 25 9 54 11 65 9 45 76 404 84 450 5 28 18
100 29 160 24 129 25 145 9 144 -7 0 -40 -9 -73 -20z"/>
<path d="M4219 4229 c-132 -11 -273 -96 -342 -206 -96 -152 -55 -369 95 -508
32 -30 78 -63 101 -73 l42 -19 -95 -46 c-174 -83 -462 -186 -680 -243 -36 -10
-68 -20 -72 -23 -4 -4 8 -67 28 -141 19 -74 60 -232 90 -350 68 -259 98 -359
132 -425 79 -159 168 -232 312 -259 216 -42 397 24 662 240 109 90 258 247
246 259 -2 3 -27 -4 -55 -15 -98 -37 -201 -42 -288 -13 -60 20 -148 104 -183
176 -23 47 -223 609 -226 635 0 8 50 32 134 62 200 73 285 120 378 206 132
122 174 207 173 349 -1 243 -200 416 -452 394z"/>
</g>
</svg>
